<svg width="365" height="90" viewBox="0 0 365 90" fill="none" xmlns="http://www.w3.org/2000/svg">
<path d="M128.64 51H123.04L110.36 31.84V51H104.76V23.04H110.36L123.04 42.24V23.04H128.64V51ZM132.734 39.84C132.734 37.6 133.174 35.6133 134.054 33.88C134.961 32.1467 136.174 30.8133 137.694 29.88C139.241 28.9467 140.961 28.48 142.854 28.48C144.507 28.48 145.947 28.8133 147.174 29.48C148.427 30.1467 149.427 30.9867 150.174 32V28.84H155.814V51H150.174V47.76C149.454 48.8 148.454 49.6667 147.174 50.36C145.921 51.0267 144.467 51.36 142.814 51.36C140.947 51.36 139.241 50.88 137.694 49.92C136.174 48.96 134.961 47.6133 134.054 45.88C133.174 44.12 132.734 42.1067 132.734 39.84ZM150.174 39.92C150.174 38.56 149.907 37.4 149.374 36.44C148.841 35.4533 148.121 34.7067 147.214 34.2C146.307 33.6667 145.334 33.4 144.294 33.4C143.254 33.4 142.294 33.6533 141.414 34.16C140.534 34.6667 139.814 35.4133 139.254 36.4C138.721 37.36 138.454 38.5067 138.454 39.84C138.454 41.1733 138.721 42.3467 139.254 43.36C139.814 44.3467 140.534 45.1067 141.414 45.64C142.321 46.1733 143.281 46.44 144.294 46.44C145.334 46.44 146.307 46.1867 147.214 45.68C148.121 45.1467 148.841 44.4 149.374 43.44C149.907 42.4533 150.174 41.28 150.174 39.92ZM167.803 33.44V44.16C167.803 44.9067 167.977 45.4533 168.323 45.8C168.697 46.12 169.31 46.28 170.163 46.28H172.763V51H169.243C164.523 51 162.163 48.7067 162.163 44.12V33.44H159.523V28.84H162.163V23.36H167.803V28.84H172.763V33.44H167.803ZM179.631 26.2C178.645 26.2 177.818 25.8933 177.151 25.28C176.511 24.64 176.191 23.8533 176.191 22.92C176.191 21.9867 176.511 21.2133 177.151 20.6C177.818 19.96 178.645 19.64 179.631 19.64C180.618 19.64 181.431 19.96 182.071 20.6C182.738 21.2133 183.071 21.9867 183.071 22.92C183.071 23.8533 182.738 24.64 182.071 25.28C181.431 25.8933 180.618 26.2 179.631 26.2ZM182.391 28.84V51H176.791V28.84H182.391ZM197.164 45.84L202.764 28.84H208.724L200.524 51H193.724L185.564 28.84H191.564L197.164 45.84ZM221.109 45.84L226.709 28.84H232.669L224.469 51H217.669L209.509 28.84H215.509L221.109 45.84ZM256.415 39.44C256.415 40.24 256.361 40.96 256.255 41.6H240.055C240.188 43.2 240.748 44.4533 241.735 45.36C242.721 46.2667 243.935 46.72 245.375 46.72C247.455 46.72 248.935 45.8267 249.815 44.04H255.855C255.215 46.1733 253.988 47.9333 252.175 49.32C250.361 50.68 248.135 51.36 245.495 51.36C243.361 51.36 241.441 50.8933 239.735 49.96C238.055 49 236.735 47.6533 235.775 45.92C234.841 44.1867 234.375 42.1867 234.375 39.92C234.375 37.6267 234.841 35.6133 235.775 33.88C236.708 32.1467 238.015 30.8133 239.695 29.88C241.375 28.9467 243.308 28.48 245.495 28.48C247.601 28.48 249.481 28.9333 251.135 29.84C252.815 30.7467 254.108 32.04 255.015 33.72C255.948 35.3733 256.415 37.28 256.415 39.44ZM250.615 37.84C250.588 36.4 250.068 35.2533 249.055 34.4C248.041 33.52 246.801 33.08 245.335 33.08C243.948 33.08 242.775 33.5067 241.815 34.36C240.881 35.1867 240.308 36.3467 240.095 37.84H250.615ZM290.393 31.72C290.393 33.2133 290.033 34.6133 289.313 35.92C288.62 37.2267 287.513 38.28 285.993 39.08C284.5 39.88 282.607 40.28 280.313 40.28H275.633V51H270.033V23.08H280.313C282.473 23.08 284.313 23.4533 285.833 24.2C287.353 24.9467 288.487 25.9733 289.233 27.28C290.007 28.5867 290.393 30.0667 290.393 31.72ZM280.073 35.76C281.62 35.76 282.767 35.4133 283.513 34.72C284.26 34 284.633 33 284.633 31.72C284.633 29 283.113 27.64 280.073 27.64H275.633V35.76H280.073ZM307.329 51.28C304.716 51.28 302.316 50.6667 300.129 49.44C297.943 48.2133 296.209 46.52 294.929 44.36C293.649 42.1733 293.009 39.7067 293.009 36.96C293.009 34.24 293.649 31.8 294.929 29.64C296.209 27.4533 297.943 25.7467 300.129 24.52C302.316 23.2933 304.716 22.68 307.329 22.68C309.969 22.68 312.369 23.2933 314.529 24.52C316.716 25.7467 318.436 27.4533 319.689 29.64C320.969 31.8 321.609 34.24 321.609 36.96C321.609 39.7067 320.969 42.1733 319.689 44.36C318.436 46.52 316.716 48.2133 314.529 49.44C312.343 50.6667 309.943 51.28 307.329 51.28ZM307.329 46.28C309.009 46.28 310.489 45.9067 311.769 45.16C313.049 44.3867 314.049 43.2933 314.769 41.88C315.489 40.4667 315.849 38.8267 315.849 36.96C315.849 35.0933 315.489 33.4667 314.769 32.08C314.049 30.6667 313.049 29.5867 311.769 28.84C310.489 28.0933 309.009 27.72 307.329 27.72C305.649 27.72 304.156 28.0933 302.849 28.84C301.569 29.5867 300.569 30.6667 299.849 32.08C299.129 33.4667 298.769 35.0933 298.769 36.96C298.769 38.8267 299.129 40.4667 299.849 41.88C300.569 43.2933 301.569 44.3867 302.849 45.16C304.156 45.9067 305.649 46.28 307.329 46.28ZM335.416 51.28C333.469 51.28 331.709 50.9467 330.136 50.28C328.589 49.6133 327.362 48.6533 326.456 47.4C325.549 46.1467 325.082 44.6667 325.056 42.96H331.056C331.136 44.1067 331.536 45.0133 332.256 45.68C333.002 46.3467 334.016 46.68 335.296 46.68C336.602 46.68 337.629 46.3733 338.376 45.76C339.122 45.12 339.496 44.2933 339.496 43.28C339.496 42.4533 339.242 41.7733 338.736 41.24C338.229 40.7067 337.589 40.2933 336.816 40C336.069 39.68 335.029 39.3333 333.696 38.96C331.882 38.4267 330.402 37.9067 329.256 37.4C328.136 36.8667 327.162 36.08 326.336 35.04C325.536 33.9733 325.136 32.56 325.136 30.8C325.136 29.1467 325.549 27.7067 326.376 26.48C327.202 25.2533 328.362 24.32 329.856 23.68C331.349 23.0133 333.056 22.68 334.976 22.68C337.856 22.68 340.189 23.3867 341.976 24.8C343.789 26.1867 344.789 28.1333 344.976 30.64H338.816C338.762 29.68 338.349 28.8933 337.576 28.28C336.829 27.64 335.829 27.32 334.576 27.32C333.482 27.32 332.602 27.6 331.936 28.16C331.296 28.72 330.976 29.5333 330.976 30.6C330.976 31.3467 331.216 31.9733 331.696 32.48C332.202 32.96 332.816 33.36 333.536 33.68C334.282 33.9733 335.322 34.32 336.656 34.72C338.469 35.2533 339.949 35.7867 341.096 36.32C342.242 36.8533 343.229 37.6533 344.056 38.72C344.882 39.7867 345.296 41.1867 345.296 42.92C345.296 44.4133 344.909 45.8 344.136 47.08C343.362 48.36 342.229 49.3867 340.736 50.16C339.242 50.9067 337.469 51.28 335.416 51.28Z" fill="#504B8E"/>
<path d="M53.5 73C73.6584 73 90 56.6584 90 36.5C90 16.3416 73.6584 0 53.5 0C33.3416 0 17 16.3416 17 36.5C17 56.6584 33.3416 73 53.5 73Z" fill="#D8E3FF"/>
<path d="M3.4373 12.0422C5.63311 12.2313 7.87908 12.7785 9.92814 14.1725C10.4117 14.5757 10.9533 14.8859 11.3972 15.3778C11.8413 15.8588 12.3306 16.3317 12.7072 16.8619C13.0614 17.3286 13.4055 17.793 13.7394 18.2768C19.2128 18.6505 24.6744 19.3878 30.0841 20.6319C33.8516 21.4788 37.5749 22.6344 41.2602 24.0009C44.4991 25.298 47.7194 26.8562 50.7243 29.0193C41.6038 19.0387 31.7893 15.4662 27.1325 13.8555C16.9999 10.3484 7.94506 10.7709 1.39453 12.0141C2.06926 11.9885 2.7551 12.0045 3.4373 12.0422Z" fill="#504B8E"/>
<path d="M29.6341 23.8301C25.9524 22.93 22.2235 22.3058 18.4885 21.7687C17.5839 21.6343 16.6794 21.4999 15.7793 21.4004C16.8636 23.1537 17.8814 25.0084 18.8117 26.9187C19 27.3047 19.1865 27.7037 19.3747 28.1006C24.2556 28.4617 29.1323 29.1343 33.975 30.2073L36.7445 30.9251L38.1266 31.2948L39.4959 31.7384L42.2328 32.6365C43.1428 32.9845 44.0409 33.3497 44.9454 33.7281C48.532 35.2348 52.0682 37.1263 55.3107 39.7371C57.9675 41.8497 60.479 44.4526 62.4363 47.6644C61.3016 44.9628 59.941 42.1861 58.3165 39.4146C56.1924 36.4336 53.6631 34.0265 50.9285 32.1155C47.6807 29.8815 44.1797 28.2235 40.5847 26.9694C36.9895 25.7284 33.3358 24.613 29.6341 23.8301Z" fill="#504B8E"/>
<path d="M54.3265 41.9419C51.1353 39.7239 47.7375 37.9606 44.2164 36.6727L41.5894 35.6716L38.9167 34.8354L37.5753 34.4226L36.2212 34.0838L33.5213 33.4062C29.8936 32.5896 26.2422 31.9099 22.5694 31.4564C21.9648 31.3631 21.3583 31.2785 20.75 31.207C21.1773 32.1845 21.6031 33.0268 22.1351 33.7901C23.4399 35.651 25.1014 37.0659 26.972 37.9629C27.9038 38.4267 28.8709 38.745 29.8918 39.0356L33.0479 39.9199L45.6549 43.6287L51.9332 45.5536C54.1238 46.3636 56.1809 47.6597 58.0227 49.3145C61.5843 52.5157 64.358 56.817 66.6116 61.4249C65.7819 57.5424 64.4616 53.8884 62.6333 50.7677C60.463 47.0171 57.4853 44.2051 54.3265 41.9419Z" fill="#504B8E"/>
</svg>
